<svg width="128" height="132" viewBox="0 0 128 132" fill="none" xmlns="http://www.w3.org/2000/svg">
<path d="M112.79 72.4228C113.063 70.3728 113.2 68.2544 113.2 65.9994C113.2 63.8128 113.063 61.6261 112.722 59.5761L126.593 48.7794C127.823 47.8228 128.165 45.9778 127.413 44.6111L114.293 21.9244C113.473 20.4211 111.765 19.9428 110.262 20.4211L93.9299 26.9811C90.5132 24.3844 86.8916 22.1978 82.8599 20.5578L80.3999 3.2011C80.1266 1.5611 78.7599 0.399431 77.1199 0.399431H50.8799C49.2399 0.399431 47.9416 1.5611 47.6682 3.2011L45.2082 20.5578C41.1766 22.1978 37.4866 24.4528 34.1383 26.9811L17.8066 20.4211C16.3032 19.8744 14.5949 20.4211 13.7749 21.9244L0.723249 44.6111C-0.0967511 46.0461 0.176582 47.8228 1.54325 48.7794L15.4149 59.5761C15.0732 61.6261 14.7999 63.8811 14.7999 65.9994C14.7999 68.1178 14.9366 70.3728 15.2782 72.4228L1.40658 83.2194C0.176582 84.1761 -0.165084 86.0211 0.586582 87.3878L13.7066 110.074C14.5266 111.578 16.2349 112.056 17.7382 111.578L34.0699 105.018C37.4866 107.614 41.1082 109.801 45.1399 111.441L47.5999 128.798C47.9416 130.438 49.2399 131.599 50.8799 131.599H77.1199C78.7599 131.599 80.1266 130.438 80.3316 128.798L82.7916 111.441C86.8233 109.801 90.5133 107.614 93.8616 105.018L110.193 111.578C111.697 112.124 113.405 111.578 114.225 110.074L127.345 87.3878C128.165 85.8844 127.823 84.1761 126.525 83.2194L112.79 72.4228ZM63.9999 90.5994C50.4699 90.5994 39.3999 79.5294 39.3999 65.9994C39.3999 52.4694 50.4699 41.3994 63.9999 41.3994C77.5299 41.3994 88.5999 52.4694 88.5999 65.9994C88.5999 79.5294 77.5299 90.5994 63.9999 90.5994Z" fill="url(#paint0_linear)"/>
<defs>
<linearGradient id="paint0_linear" x1="6.06353" y1="121.283" x2="126.642" y2="8.01888" gradientUnits="userSpaceOnUse">
<stop stop-color="#1160EB"/>
<stop offset="0.509178" stop-color="#4386E1"/>
<stop offset="1" stop-color="#7DDDD7"/>
</linearGradient>
</defs>
</svg>
