<svg width="414" height="473" viewBox="0 0 414 473" fill="none" xmlns="http://www.w3.org/2000/svg">
<g clip-path="url(#clip0)">
<g filter="url(#filter0_f)">
<path d="M206 414C294.365 414 366 394.301 366 370C366 345.699 294.365 326 206 326C117.635 326 46 345.699 46 370C46 394.301 117.635 414 206 414Z" fill="#509ADF"/>
</g>
<path fill-rule="evenodd" clip-rule="evenodd" d="M206.795 92.3374L299.043 0.08893L413.501 114.546L321.252 206.795L413.49 299.033L299.033 413.49L206.795 321.252L114.468 413.579L0.0100021 299.121L92.337 206.795L0 114.457L114.457 0L206.795 92.3374Z" fill="url(#paint0_linear)"/>
</g>
<defs>
<filter id="filter0_f" x="-34" y="246" width="480" height="248" filterUnits="userSpaceOnUse" color-interpolation-filters="sRGB">
<feFlood flood-opacity="0" result="BackgroundImageFix"/>
<feBlend mode="normal" in="SourceGraphic" in2="BackgroundImageFix" result="shape"/>
<feGaussianBlur stdDeviation="40" result="effect1_foregroundBlur"/>
</filter>
<linearGradient id="paint0_linear" x1="19.03" y1="381.06" x2="399.637" y2="13.5778" gradientUnits="userSpaceOnUse">
<stop stop-color="#1160EB"/>
<stop offset="0.509178" stop-color="#4386E1"/>
<stop offset="1" stop-color="#7DDDD7"/>
</linearGradient>
<clipPath id="clip0">
<rect width="414" height="473" fill="white"/>
</clipPath>
</defs>
</svg>
